<svg xmlns="http://www.w3.org/2000/svg" width="281.409" height="276.089" viewBox="0 0 281.409 276.089">
  <g id="Group_2" data-name="Group 2" transform="translate(-709.591 -292.911)">
    <g id="arrow" transform="translate(845.248 261.459) rotate(41)">
      <g id="Group_1" data-name="Group 1" transform="translate(0 41.674)">
        <path id="Path_1" data-name="Path 1" d="M187.6,108.637l.31.068H54.9L96.715,66.8a10.981,10.981,0,0,0,0-15.438l-6.506-6.51a10.883,10.883,0,0,0-15.362-.008L3.169,116.514a10.958,10.958,0,0,0,0,15.416l71.677,71.677a10.893,10.893,0,0,0,15.362,0l6.506-6.51a10.767,10.767,0,0,0,3.171-7.68,10.444,10.444,0,0,0-3.171-7.536l-42.286-42.14H187.751a11.265,11.265,0,0,0,11.025-11.151v-9.207C198.776,113.4,193.593,108.637,187.6,108.637Z" transform="translate(0 -41.674)"/>
      </g>
    </g>
    <text id="V" transform="translate(930 545)" font-size="100" font-family="Menlo-Bold, Menlo" font-weight="700" letter-spacing="0.01em"><tspan x="0" y="0">V</tspan></text>
  </g>
</svg>
