<?xml version="1.0" encoding="iso-8859-1"?>
<!-- Generator: Adobe Illustrator 19.0.0, SVG Export Plug-In . SVG Version: 6.00 Build 0)  -->
<svg version="1.1" id="Capa_1" xmlns="http://www.w3.org/2000/svg" xmlns:xlink="http://www.w3.org/1999/xlink" x="0px" y="0px"
	 viewBox="0 0 512.003 512.003" style="enable-background:new 0 0 512.003 512.003;" xml:space="preserve">
<style>
    svg { cursor: pointer; } /* whole rectangle */
 </style>
	<g>
	<g>
		<path d="M305.594,9.395c-11.671-2.529-23.646-4.232-35.603-5.075c-4.823-0.426-8.942,3.267-9.281,8.056
			c-0.33,4.788,3.276,8.942,8.064,9.272c11.132,0.791,22.273,2.372,33.135,4.736c0.617,0.139,1.243,0.191,1.851,0.191
			c3.997,0,7.604-2.772,8.482-6.848C313.259,15.035,310.278,10.412,305.594,9.395z"/>
	</g>
</g>
<g>
	<g>
		<path d="M27.017,162.496c-4.51-1.668-9.507,0.6-11.184,5.101c-4.189,11.228-7.595,22.846-10.133,34.543
			c-1.008,4.693,1.973,9.316,6.657,10.332c0.617,0.139,1.243,0.191,1.851,0.191c3.997,0,7.604-2.781,8.482-6.848
			c2.355-10.889,5.527-21.699,9.429-32.144C33.796,169.17,31.51,164.165,27.017,162.496z"/>
	</g>
</g>
<g>
	<g>
		<path d="M19.744,289.11c-1.564-10.984-2.355-22.229-2.364-33.413c0-4.806-3.893-8.69-8.69-8.69c-4.797,0-8.69,3.893-8.69,8.69
			c0,12.01,0.86,24.08,2.537,35.855c0.617,4.336,4.336,7.465,8.594,7.465c0.408,0,0.817-0.026,1.234-0.087
			C17.119,298.252,20.413,293.855,19.744,289.11z"/>
	</g>
</g>
<g>
	<g>
		<path d="M226.002,13.61c-0.669-4.753-5.084-8.099-9.828-7.387c-11.845,1.677-23.672,4.241-35.151,7.604
			c-4.606,1.347-7.239,6.179-5.892,10.784c1.104,3.798,4.562,6.248,8.325,6.248c0.808,0,1.634-0.113,2.451-0.348
			c10.689-3.128,21.69-5.518,32.709-7.074C223.369,22.76,226.671,18.363,226.002,13.61z"/>
	</g>
</g>
<g>
	<g>
		<path d="M493.881,184.725c-3.363-11.48-7.595-22.82-12.566-33.709c-1.999-4.362-7.161-6.274-11.523-4.284
			c-4.362,1.99-6.283,7.152-4.284,11.514c4.632,10.124,8.568,20.674,11.697,31.362c1.112,3.789,4.58,6.248,8.334,6.248
			c0.808,0,1.634-0.113,2.442-0.348C492.586,194.163,495.228,189.331,493.881,184.725z"/>
	</g>
</g>
<g>
	<g>
		<path d="M503.397,237.752c-0.339-4.788-4.441-8.508-9.281-8.056c-4.788,0.33-8.395,4.484-8.056,9.272
			c0.391,5.553,0.582,11.175,0.582,16.728c0,5.544-0.235,11.141-0.695,16.667c-0.4,4.788,3.154,8.986,7.943,9.377
			c0.243,0.026,0.487,0.035,0.73,0.035c4.475,0,8.273-3.433,8.655-7.969c0.495-5.996,0.747-12.097,0.747-18.11
			C504.022,249.736,503.814,243.705,503.397,237.752z"/>
	</g>
</g>
<g>
	<g>
		<path d="M486.877,315.78c-4.554-1.538-9.472,0.965-10.976,5.527c-3.441,10.428-7.734,20.839-12.774,30.954
			c-2.138,4.302-0.391,9.516,3.902,11.662c1.243,0.617,2.564,0.904,3.867,0.904c3.189,0,6.266-1.764,7.786-4.814
			c5.405-10.863,10.028-22.047,13.722-33.257C493.907,322.202,491.431,317.283,486.877,315.78z"/>
	</g>
</g>
<g>
	<g>
		<path d="M453.785,104.69c-7.161-9.559-15.086-18.692-23.541-27.165c-3.398-3.398-8.899-3.398-12.288,0
			c-3.398,3.389-3.398,8.89,0,12.288c7.873,7.882,15.251,16.398,21.925,25.297c1.703,2.285,4.319,3.476,6.961,3.476
			c1.816,0,3.641-0.565,5.205-1.738C455.888,113.971,456.67,108.522,453.785,104.69z"/>
	</g>
</g>
<g>
	<g>
		<path d="M169.986,475.607c-10.445-3.893-20.682-8.586-30.45-13.939c-4.206-2.312-9.49-0.765-11.792,3.441
			s-0.765,9.49,3.441,11.792c10.498,5.753,21.508,10.784,32.735,14.973c0.999,0.374,2.025,0.547,3.033,0.547
			c3.528,0,6.839-2.155,8.143-5.649C176.773,482.281,174.487,477.276,169.986,475.607z"/>
	</g>
</g>
<g>
	<g>
		<path d="M46.014,368.146c-5.336-9.785-10.011-20.013-13.904-30.433c-1.677-4.501-6.683-6.787-11.184-5.101
			c-4.493,1.669-6.778,6.683-5.101,11.175c4.18,11.193,9.211,22.186,14.947,32.683c1.582,2.894,4.562,4.527,7.63,4.527
			c1.408,0,2.842-0.339,4.162-1.069C46.77,377.627,48.325,372.352,46.014,368.146z"/>
	</g>
</g>
<g>
	<g>
		<path d="M143.021,37.916c-2.303-4.206-7.578-5.779-11.792-3.45c-10.463,5.718-20.639,12.27-30.224,19.457
			c-3.841,2.876-4.623,8.316-1.747,12.157c1.703,2.277,4.319,3.476,6.961,3.476c1.816,0,3.641-0.565,5.205-1.738
			c8.933-6.691,18.406-12.792,28.147-18.119C143.785,47.405,145.324,42.13,143.021,37.916z"/>
	</g>
</g>
<g>
	<g>
		<path d="M388.306,43.695c-10.089-6.491-20.708-12.305-31.562-17.267c-4.362-1.981-9.524-0.078-11.514,4.284
			c-1.999,4.362-0.078,9.524,4.284,11.514c10.107,4.623,19.987,10.037,29.39,16.085c1.451,0.93,3.085,1.382,4.693,1.382
			c2.859,0,5.657-1.408,7.317-3.989C393.511,51.663,392.347,46.284,388.306,43.695z"/>
	</g>
</g>
<g>
	<g>
		<path d="M252.011,490.328c-11.193,0-22.438-0.791-33.405-2.355c-4.745-0.652-9.151,2.633-9.828,7.378
			c-0.678,4.753,2.624,9.159,7.378,9.837c11.784,1.677,23.845,2.529,35.855,2.529c4.797,0,8.69-3.884,8.69-8.69
			S256.817,490.328,252.011,490.328z"/>
	</g>
</g>
<g>
	<g>
		<path d="M98.345,433.008c-8.421-7.308-16.389-15.277-23.68-23.68c-3.137-3.615-8.629-4.023-12.262-0.878
			c-3.624,3.146-4.015,8.638-0.869,12.262c7.83,9.029,16.381,17.58,25.418,25.418c1.642,1.434,3.667,2.129,5.692,2.129
			c2.433,0,4.849-1.017,6.57-2.998C102.36,441.638,101.969,436.146,98.345,433.008z"/>
	</g>
</g>
<g>
	<g>
		<path d="M73.831,89.76c-3.624-3.137-9.116-2.737-12.262,0.878c-7.838,9.038-15.103,18.718-21.577,28.773
			c-2.598,4.041-1.443,9.411,2.598,12.018c1.451,0.93,3.085,1.382,4.701,1.382c2.859,0,5.648-1.408,7.317-3.98
			c6.031-9.359,12.792-18.379,20.091-26.8C77.845,98.398,77.463,92.915,73.831,89.76z"/>
	</g>
</g>
<g>
	<g>
		<path d="M511.93,417.297c-0.617-4.771-4.971-8.056-9.733-7.526l-62.247,8.021c3.476-4.023,6.883-8.099,10.098-12.262
			c2.937-3.798,2.233-9.246-1.564-12.183s-9.255-2.242-12.192,1.564c-4.058,5.249-8.412,10.35-12.887,15.355l-8.768-68.06
			c-0.608-4.753-4.971-8.064-9.724-7.508c-4.762,0.617-8.125,4.971-7.508,9.733l11.106,86.188c0.565,4.38,4.302,7.578,8.603,7.578
			c0.365,0,0.747-0.026,1.121-0.07l86.188-11.097C509.184,426.413,512.547,422.059,511.93,417.297z"/>
	</g>
</g>
<g>
	<g>
		<path d="M252.011,168.796c-52.705,0-95.59,42.885-95.59,95.591c0,52.705,42.885,95.59,95.59,95.59
			c52.705,0,95.59-42.885,95.59-95.59C347.602,211.682,304.725,168.796,252.011,168.796z"/>
	</g>
</g>
<g>
</g>
<g>
</g>
<g>
</g>
<g>
</g>
<g>
</g>
<g>
</g>
<g>
</g>
<g>
</g>
<g>
</g>
<g>
</g>
<g>
</g>
<g>
</g>
<g>
</g>
<g>
</g>
<g>
</g>
</svg>
