<?xml version="1.0" encoding="iso-8859-1"?>
<!-- Generator: Adobe Illustrator 19.0.0, SVG Export Plug-In . SVG Version: 6.00 Build 0)  -->
<svg version="1.1" id="Layer_1" xmlns="http://www.w3.org/2000/svg" xmlns:xlink="http://www.w3.org/1999/xlink" x="0px" y="0px"
	 viewBox="0 0 511.999 511.999" style="enable-background:new 0 0 511.999 511.999;" xml:space="preserve">
<g>
	<g>
		<path d="M255.999,0C114.851,0,0,114.116,0,255.999c0,141.49,114.496,255.999,255.999,255.999
			c141.714,0,255.999-114.74,255.999-255.999C512,114.232,397.214,0,255.999,0z M226.461,60.171
			c-28.323,18.372-48.127,32.476-52.513,48.136c-7.658,27.35,41.028,47.244,54.52,59.223c24.481,21.734,13.23,75.557-12.37,99.542
			c-25.6,23.984-35.116,48.312-32.304,66.603c3.672,23.889,30.739,61.867,45.256,85.431c14.517,23.564-0.949,28.894-21.188,16.859
			c-15.046-8.946-84.297-25.826-105.341-41.116s-27.636-67.682-20.988-89.468c6.648-21.786,14.467-79.807-18.723-98.989
			c-8.646-4.997-15.04-10.951-19.695-17.438C72.602,95.535,161.74,28.888,265.036,33.018
			C250.496,43.683,236.187,53.862,226.461,60.171z M445.265,297.572c-28.496-2.974-61.576-7.51-67.829-10.941
			c-26.093-14.312-17.505-33.914-6.697-62.359c10.807-28.444-43.485-53.337-43.485-87.521c0-33.41,21.382-55.573,46.731-70.109
			c63.117,39.469,105.194,109.586,105.194,189.357c0.001,31.868-6.727,62.189-18.814,89.639
			C459.221,321.551,461.554,299.272,445.265,297.572z"/>
	</g>
</g>
<g>
</g>
<g>
</g>
<g>
</g>
<g>
</g>
<g>
</g>
<g>
</g>
<g>
</g>
<g>
</g>
<g>
</g>
<g>
</g>
<g>
</g>
<g>
</g>
<g>
</g>
<g>
</g>
<g>
</g>
</svg>
